<svg width="26" height="29" viewBox="0 0 26 29" fill="none" xmlns="http://www.w3.org/2000/svg">
<g filter="url(#filter0_d_1_383)">
<path d="M3.98999 9.54859C3.98999 4.4738 8.10392 0.359863 13.1787 0.359863C18.2535 0.359863 22.3674 4.4738 22.3674 9.54859V10.2292C22.3674 15.304 18.2535 19.418 13.1787 19.418C8.10392 19.418 3.98999 15.304 3.98999 10.2292V9.54859Z" fill="#AF8208"/>
</g>
<path d="M13.3377 12.4442C13.5627 12.4442 13.7517 12.4172 13.9047 12.3632C14.0577 12.3092 14.1792 12.2372 14.2692 12.1472C14.3622 12.0572 14.4282 11.9522 14.4672 11.8322C14.5092 11.7122 14.5302 11.5847 14.5302 11.4497C14.5302 11.3087 14.5077 11.1827 14.4627 11.0717C14.4177 10.9577 14.3472 10.8617 14.2512 10.7837C14.1552 10.7027 14.0307 10.6412 13.8777 10.5992C13.7277 10.5572 13.5462 10.5362 13.3332 10.5362H12.1137V12.4442H13.3377ZM12.1137 7.81816V9.69916H13.0767C13.4907 9.69916 13.8027 9.62416 14.0127 9.47416C14.2257 9.32416 14.3322 9.08566 14.3322 8.75866C14.3322 8.41966 14.2362 8.17816 14.0442 8.03416C13.8522 7.89016 13.5522 7.81816 13.1442 7.81816H12.1137ZM13.1442 6.88216C13.5702 6.88216 13.9347 6.92266 14.2377 7.00366C14.5407 7.08466 14.7882 7.20016 14.9802 7.35016C15.1752 7.50016 15.3177 7.68166 15.4077 7.89466C15.4977 8.10766 15.5427 8.34766 15.5427 8.61466C15.5427 8.76766 15.5202 8.91466 15.4752 9.05566C15.4302 9.19366 15.3597 9.32416 15.2637 9.44716C15.1707 9.56716 15.0507 9.67666 14.9037 9.77566C14.7597 9.87466 14.5872 9.95866 14.3862 10.0277C15.2802 10.2287 15.7272 10.7117 15.7272 11.4767C15.7272 11.7527 15.6747 12.0077 15.5697 12.2417C15.4647 12.4757 15.3117 12.6782 15.1107 12.8492C14.9097 13.0172 14.6622 13.1492 14.3682 13.2452C14.0742 13.3412 13.7382 13.3892 13.3602 13.3892H10.9032V6.88216H13.1442Z" fill="white"/>
<defs>
<filter id="filter0_d_1_383" x="0.98999" y="0.359863" width="24.3774" height="28.0581" filterUnits="userSpaceOnUse" color-interpolation-filters="sRGB">
<feFlood flood-opacity="0" result="BackgroundImageFix"/>
<feColorMatrix in="SourceAlpha" type="matrix" values="0 0 0 0 0 0 0 0 0 0 0 0 0 0 0 0 0 0 127 0" result="hardAlpha"/>
<feOffset dy="6"/>
<feGaussianBlur stdDeviation="1.5"/>
<feComposite in2="hardAlpha" operator="out"/>
<feColorMatrix type="matrix" values="0 0 0 0 0 0 0 0 0 0 0 0 0 0 0 0 0 0 0.160784 0"/>
<feBlend mode="normal" in2="BackgroundImageFix" result="effect1_dropShadow_1_383"/>
<feBlend mode="normal" in="SourceGraphic" in2="effect1_dropShadow_1_383" result="shape"/>
</filter>
</defs>
</svg>
