<svg width="28" height="31" viewBox="0 0 28 31" fill="none" xmlns="http://www.w3.org/2000/svg">
<g filter="url(#filter0_d_1_389)">
<path d="M3 3C3 1.34315 4.34315 0 6 0H22C23.6569 0 25 1.34315 25 3V19C25 20.6569 23.6569 22 22 22H6C4.34315 22 3 20.6569 3 19V3Z" fill="#EFC025"/>
</g>
<path d="M17.118 10.65V14.16C16.678 14.484 16.208 14.722 15.708 14.874C15.212 15.022 14.68 15.096 14.112 15.096C13.404 15.096 12.762 14.986 12.186 14.766C11.614 14.546 11.124 14.24 10.716 13.848C10.312 13.456 10 12.988 9.78 12.444C9.56 11.9 9.45 11.306 9.45 10.662C9.45 10.01 9.556 9.412 9.768 8.868C9.98 8.324 10.28 7.856 10.668 7.464C11.06 7.072 11.534 6.768 12.09 6.552C12.646 6.336 13.27 6.228 13.962 6.228C14.314 6.228 14.642 6.256 14.946 6.312C15.254 6.368 15.538 6.446 15.798 6.546C16.062 6.642 16.302 6.76 16.518 6.9C16.734 7.04 16.932 7.194 17.112 7.362L16.65 8.094C16.578 8.21 16.484 8.282 16.368 8.31C16.252 8.334 16.126 8.304 15.99 8.22C15.858 8.144 15.726 8.068 15.594 7.992C15.462 7.916 15.314 7.85 15.15 7.794C14.99 7.738 14.808 7.692 14.604 7.656C14.404 7.62 14.172 7.602 13.908 7.602C13.48 7.602 13.092 7.674 12.744 7.818C12.4 7.962 12.106 8.168 11.862 8.436C11.618 8.704 11.43 9.026 11.298 9.402C11.166 9.778 11.1 10.198 11.1 10.662C11.1 11.158 11.17 11.602 11.31 11.994C11.454 12.382 11.654 12.712 11.91 12.984C12.17 13.252 12.482 13.458 12.846 13.602C13.21 13.742 13.616 13.812 14.064 13.812C14.384 13.812 14.67 13.778 14.922 13.71C15.174 13.642 15.42 13.55 15.66 13.434V11.862H14.568C14.464 11.862 14.382 11.834 14.322 11.778C14.266 11.718 14.238 11.646 14.238 11.562V10.65H17.118Z" fill="white"/>
<defs>
<filter id="filter0_d_1_389" x="0" y="0" width="28" height="31" filterUnits="userSpaceOnUse" color-interpolation-filters="sRGB">
<feFlood flood-opacity="0" result="BackgroundImageFix"/>
<feColorMatrix in="SourceAlpha" type="matrix" values="0 0 0 0 0 0 0 0 0 0 0 0 0 0 0 0 0 0 127 0" result="hardAlpha"/>
<feOffset dy="6"/>
<feGaussianBlur stdDeviation="1.5"/>
<feComposite in2="hardAlpha" operator="out"/>
<feColorMatrix type="matrix" values="0 0 0 0 0 0 0 0 0 0 0 0 0 0 0 0 0 0 0.160784 0"/>
<feBlend mode="normal" in2="BackgroundImageFix" result="effect1_dropShadow_1_389"/>
<feBlend mode="normal" in="SourceGraphic" in2="effect1_dropShadow_1_389" result="shape"/>
</filter>
</defs>
</svg>
