<svg width="26" height="29" viewBox="0 0 26 29" fill="none" xmlns="http://www.w3.org/2000/svg">
<g filter="url(#filter0_d_1_381)">
<path d="M3.84143 9.88892C3.84143 4.62617 8.10773 0.359863 13.3705 0.359863C18.6332 0.359863 22.8995 4.62617 22.8995 9.88892C22.8995 15.1517 18.6332 19.418 13.3705 19.418C8.10773 19.418 3.84143 15.1517 3.84143 9.88892Z" fill="#EFC025"/>
</g>
<path d="M16.0516 9.45752V12.3825C15.685 12.6525 15.2933 12.8509 14.8766 12.9775C14.4633 13.1009 14.02 13.1625 13.5466 13.1625C12.9566 13.1625 12.4216 13.0709 11.9416 12.8875C11.465 12.7042 11.0566 12.4492 10.7166 12.1225C10.38 11.7959 10.12 11.4059 9.93662 10.9525C9.75329 10.4992 9.66162 10.0042 9.66162 9.46752C9.66162 8.92419 9.74995 8.42585 9.92662 7.97252C10.1033 7.51919 10.3533 7.12919 10.6766 6.80252C11.0033 6.47585 11.3983 6.22252 11.8616 6.04252C12.325 5.86252 12.845 5.77252 13.4216 5.77252C13.715 5.77252 13.9883 5.79585 14.2416 5.84252C14.4983 5.88919 14.735 5.95419 14.9516 6.03752C15.1716 6.11752 15.3716 6.21585 15.5516 6.33252C15.7316 6.44919 15.8966 6.57752 16.0466 6.71752L15.6616 7.32752C15.6016 7.42419 15.5233 7.48419 15.4266 7.50752C15.33 7.52752 15.225 7.50252 15.1116 7.43252C15.0016 7.36919 14.8916 7.30585 14.7816 7.24252C14.6716 7.17919 14.5483 7.12419 14.4116 7.07752C14.2783 7.03085 14.1266 6.99252 13.9566 6.96252C13.79 6.93252 13.5966 6.91752 13.3766 6.91752C13.02 6.91752 12.6966 6.97752 12.4066 7.09752C12.12 7.21752 11.875 7.38919 11.6716 7.61252C11.4683 7.83585 11.3116 8.10419 11.2016 8.41752C11.0916 8.73085 11.0366 9.08085 11.0366 9.46752C11.0366 9.88085 11.095 10.2509 11.2116 10.5775C11.3316 10.9009 11.4983 11.1759 11.7116 11.4025C11.9283 11.6259 12.1883 11.7975 12.4916 11.9175C12.795 12.0342 13.1333 12.0925 13.5066 12.0925C13.7733 12.0925 14.0116 12.0642 14.2216 12.0075C14.4316 11.9509 14.6366 11.8742 14.8366 11.7775V10.4675H13.9266C13.84 10.4675 13.7716 10.4442 13.7216 10.3975C13.675 10.3475 13.6516 10.2875 13.6516 10.2175V9.45752H16.0516Z" fill="white"/>
<defs>
<filter id="filter0_d_1_381" x="0.841431" y="0.359863" width="25.0581" height="28.0581" filterUnits="userSpaceOnUse" color-interpolation-filters="sRGB">
<feFlood flood-opacity="0" result="BackgroundImageFix"/>
<feColorMatrix in="SourceAlpha" type="matrix" values="0 0 0 0 0 0 0 0 0 0 0 0 0 0 0 0 0 0 127 0" result="hardAlpha"/>
<feOffset dy="6"/>
<feGaussianBlur stdDeviation="1.5"/>
<feComposite in2="hardAlpha" operator="out"/>
<feColorMatrix type="matrix" values="0 0 0 0 0 0 0 0 0 0 0 0 0 0 0 0 0 0 0.160784 0"/>
<feBlend mode="normal" in2="BackgroundImageFix" result="effect1_dropShadow_1_381"/>
<feBlend mode="normal" in="SourceGraphic" in2="effect1_dropShadow_1_381" result="shape"/>
</filter>
</defs>
</svg>
