<svg width="26" height="29" viewBox="0 0 26 29" fill="none" xmlns="http://www.w3.org/2000/svg">
<g filter="url(#filter0_d_1_382)">
<path d="M3.91577 9.54859C3.91577 4.4738 8.02971 0.359863 13.1045 0.359863C18.1793 0.359863 22.2932 4.4738 22.2932 9.54859V10.2292C22.2932 15.304 18.1793 19.418 13.1045 19.418C8.02971 19.418 3.91577 15.304 3.91577 10.2292V9.54859Z" fill="#C4C4C4"/>
</g>
<path d="M14.6965 7.16752C14.6565 7.23752 14.6132 7.28919 14.5665 7.32252C14.5232 7.35252 14.4682 7.36752 14.4015 7.36752C14.3315 7.36752 14.2548 7.34252 14.1715 7.29252C14.0915 7.23919 13.9948 7.18085 13.8815 7.11752C13.7682 7.05419 13.6348 6.99752 13.4815 6.94752C13.3315 6.89419 13.1532 6.86752 12.9465 6.86752C12.7598 6.86752 12.5965 6.89085 12.4565 6.93752C12.3165 6.98085 12.1982 7.04252 12.1015 7.12252C12.0082 7.20252 11.9382 7.29919 11.8915 7.41252C11.8448 7.52252 11.8215 7.64419 11.8215 7.77752C11.8215 7.94752 11.8682 8.08919 11.9615 8.20252C12.0582 8.31585 12.1848 8.41252 12.3415 8.49252C12.4982 8.57252 12.6765 8.64419 12.8765 8.70752C13.0765 8.77085 13.2815 8.83919 13.4915 8.91252C13.7015 8.98252 13.9065 9.06585 14.1065 9.16252C14.3065 9.25585 14.4848 9.37585 14.6415 9.52252C14.7982 9.66585 14.9232 9.84252 15.0165 10.0525C15.1132 10.2625 15.1615 10.5175 15.1615 10.8175C15.1615 11.1442 15.1048 11.4509 14.9915 11.7375C14.8815 12.0209 14.7182 12.2692 14.5015 12.4825C14.2882 12.6925 14.0265 12.8592 13.7165 12.9825C13.4065 13.1025 13.0515 13.1625 12.6515 13.1625C12.4215 13.1625 12.1948 13.1392 11.9715 13.0925C11.7482 13.0492 11.5332 12.9859 11.3265 12.9025C11.1232 12.8192 10.9315 12.7192 10.7515 12.6025C10.5715 12.4859 10.4115 12.3559 10.2715 12.2125L10.6665 11.5675C10.6998 11.5209 10.7432 11.4825 10.7965 11.4525C10.8498 11.4192 10.9065 11.4025 10.9665 11.4025C11.0498 11.4025 11.1398 11.4375 11.2365 11.5075C11.3332 11.5742 11.4482 11.6492 11.5815 11.7325C11.7148 11.8159 11.8698 11.8925 12.0465 11.9625C12.2265 12.0292 12.4415 12.0625 12.6915 12.0625C13.0748 12.0625 13.3715 11.9725 13.5815 11.7925C13.7915 11.6092 13.8965 11.3475 13.8965 11.0075C13.8965 10.8175 13.8482 10.6625 13.7515 10.5425C13.6582 10.4225 13.5332 10.3225 13.3765 10.2425C13.2198 10.1592 13.0415 10.0892 12.8415 10.0325C12.6415 9.97585 12.4382 9.91419 12.2315 9.84752C12.0248 9.78085 11.8215 9.70085 11.6215 9.60752C11.4215 9.51419 11.2432 9.39252 11.0865 9.24252C10.9298 9.09252 10.8032 8.90585 10.7065 8.68252C10.6132 8.45585 10.5665 8.17752 10.5665 7.84752C10.5665 7.58419 10.6182 7.32752 10.7215 7.07752C10.8282 6.82752 10.9815 6.60585 11.1815 6.41252C11.3815 6.21919 11.6282 6.06419 11.9215 5.94752C12.2148 5.83085 12.5515 5.77252 12.9315 5.77252C13.3582 5.77252 13.7515 5.83919 14.1115 5.97252C14.4715 6.10585 14.7782 6.29252 15.0315 6.53252L14.6965 7.16752Z" fill="white"/>
<defs>
<filter id="filter0_d_1_382" x="0.915771" y="0.359863" width="24.3774" height="28.0581" filterUnits="userSpaceOnUse" color-interpolation-filters="sRGB">
<feFlood flood-opacity="0" result="BackgroundImageFix"/>
<feColorMatrix in="SourceAlpha" type="matrix" values="0 0 0 0 0 0 0 0 0 0 0 0 0 0 0 0 0 0 127 0" result="hardAlpha"/>
<feOffset dy="6"/>
<feGaussianBlur stdDeviation="1.5"/>
<feComposite in2="hardAlpha" operator="out"/>
<feColorMatrix type="matrix" values="0 0 0 0 0 0 0 0 0 0 0 0 0 0 0 0 0 0 0.160784 0"/>
<feBlend mode="normal" in2="BackgroundImageFix" result="effect1_dropShadow_1_382"/>
<feBlend mode="normal" in="SourceGraphic" in2="effect1_dropShadow_1_382" result="shape"/>
</filter>
</defs>
</svg>
